<svg width="48" height="51" viewBox="0 0 48 51" fill="none" xmlns="http://www.w3.org/2000/svg">
<path d="M18.15 25.05L1.1 0.349999H9.65C10.3833 0.349999 10.9167 0.466666 11.25 0.699998C11.5833 0.93333 11.8833 1.26666 12.15 1.7L24.55 20.7C24.85 19.7667 25.2833 18.8333 25.85 17.9L36.75 1.9C37.0833 1.43333 37.4167 1.06666 37.75 0.799997C38.0833 0.499998 38.5 0.349999 39 0.349999H47.2L30.15 24.55L47.9 51H39.35C38.6167 51 38.0333 50.8167 37.6 50.45C37.2 50.05 36.8667 49.6167 36.6 49.15L23.85 29.3C23.6167 30.2667 23.2667 31.1333 22.8 31.9L11 49.15C10.6667 49.6167 10.3 50.05 9.9 50.45C9.53333 50.8167 9.01667 51 8.35 51H0.4L18.15 25.05Z" fill="white"/>
</svg>
